<svg width="320" height="157" viewBox="0 0 320 157" fill="none" xmlns="http://www.w3.org/2000/svg">
<path d="M6.976 31.68H18.048L23.808 50.048C24.064 50.8587 24.32 51.7333 24.576 52.672C24.8747 53.6107 25.152 54.5493 25.408 55.488C25.664 56.4267 25.8987 57.344 26.112 58.24C26.3253 59.136 26.496 59.968 26.624 60.736H26.88C27.008 60.0533 27.1787 59.264 27.392 58.368C27.6053 57.4293 27.84 56.4693 28.096 55.488C28.352 54.5067 28.608 53.5467 28.864 52.608C29.12 51.6693 29.3547 50.816 29.568 50.048L35.136 31.68H46.208L49.216 72H40.96C40.704 67.5627 40.448 63.1253 40.192 58.688C39.936 54.2507 39.7653 49.7707 39.68 45.248L39.616 40H39.424C38.8693 42.3467 38.2507 44.8 37.568 47.36C36.928 49.92 36.3093 52.16 35.712 54.08L30.016 72H23.232L17.408 54.016C16.6827 51.712 16 49.28 15.36 46.72C14.72 44.16 14.208 41.92 13.824 40H13.632C13.632 41.536 13.6107 43.1573 13.568 44.864C13.5253 46.528 13.4613 48.192 13.376 49.856C13.3333 51.52 13.2693 53.1627 13.184 54.784C13.1413 56.3627 13.0773 57.8133 12.992 59.136L12.224 72H4.096L6.976 31.68ZM75.9685 30.976C78.8272 30.976 81.4725 31.4453 83.9045 32.384C86.3365 33.3227 88.4272 34.688 90.1765 36.48C91.9258 38.2293 93.2912 40.4053 94.2725 43.008C95.2965 45.6107 95.8085 48.576 95.8085 51.904C95.8085 55.1467 95.2965 58.048 94.2725 60.608C93.2485 63.168 91.8405 65.344 90.0485 67.136C88.2565 68.928 86.1232 70.3147 83.6485 71.296C81.2165 72.2347 78.5712 72.704 75.7125 72.704C72.8538 72.704 70.2085 72.256 67.7765 71.36C65.3445 70.4213 63.2538 69.0773 61.5045 67.328C59.7552 65.536 58.3685 63.36 57.3445 60.8C56.3632 58.1973 55.8725 55.232 55.8725 51.904C55.8725 48.6613 56.3845 45.76 57.4085 43.2C58.4325 40.5973 59.8405 38.4 61.6325 36.608C63.4245 34.7733 65.5365 33.3867 67.9685 32.448C70.4432 31.4667 73.1098 30.976 75.9685 30.976ZM65.1525 51.904C65.1525 54.2933 65.4298 56.384 65.9845 58.176C66.5818 59.9253 67.3712 61.3973 68.3525 62.592C69.3338 63.744 70.4645 64.6187 71.7445 65.216C73.0672 65.7707 74.4752 66.048 75.9685 66.048C77.4192 66.048 78.7845 65.7707 80.0645 65.216C81.3872 64.6187 82.5178 63.744 83.4565 62.592C84.3952 61.3973 85.1418 59.9253 85.6965 58.176C86.2512 56.384 86.5285 54.2933 86.5285 51.904C86.5285 49.4293 86.2298 47.296 85.6325 45.504C85.0778 43.712 84.3098 42.24 83.3285 41.088C82.3472 39.8933 81.1952 39.0187 79.8725 38.464C78.5925 37.9093 77.2058 37.632 75.7125 37.632C74.2192 37.632 72.8325 37.9307 71.5525 38.528C70.2725 39.1253 69.1632 40.0213 68.2245 41.216C67.2858 42.368 66.5392 43.84 65.9845 45.632C65.4298 47.424 65.1525 49.5147 65.1525 51.904ZM102.791 31.68H110.791L124.679 52.928C125.618 54.3787 126.471 55.808 127.239 57.216C128.05 58.5813 128.626 59.648 128.967 60.416H129.095C128.839 57.6427 128.711 54.8907 128.711 52.16C128.711 49.3867 128.711 46.592 128.711 43.776V31.68H136.839V72H128.839L115.911 52.416C115.356 51.5627 114.802 50.688 114.247 49.792C113.735 48.8533 113.244 47.9573 112.775 47.104C112.306 46.2507 111.879 45.4827 111.495 44.8C111.154 44.0747 110.898 43.4773 110.727 43.008H110.599C110.812 45.952 110.919 48.7893 110.919 51.52C110.962 54.208 110.983 56.96 110.983 59.776V72H102.791V31.68ZM154.434 31.68V72H145.666V31.68H154.434ZM190.874 31.68V38.592H179.482V72H170.714V38.592H159.578V31.68H190.874Z" fill="white"/>
<path d="M166.32 116.92C168.283 116.92 169.947 116.749 171.312 116.408C172.677 116.067 173.851 115.597 174.832 115L176.624 121.4C175.6 121.997 174.149 122.531 172.272 123C170.395 123.469 168.112 123.704 165.424 123.704C162.395 123.704 159.6 123.235 157.04 122.296C154.48 121.315 152.261 119.928 150.384 118.136C148.549 116.301 147.12 114.104 146.096 111.544C145.072 108.941 144.56 106.019 144.56 102.776C144.56 99.6187 145.051 96.76 146.032 94.2C147.056 91.64 148.464 89.464 150.256 87.672C152.091 85.8373 154.309 84.4293 156.912 83.448C159.515 82.4667 162.416 81.976 165.616 81.976C168.347 81.976 170.587 82.232 172.336 82.744C174.128 83.256 175.579 83.8107 176.688 84.408L174.704 90.872C173.595 90.2747 172.357 89.784 170.992 89.4C169.669 88.9733 168.176 88.76 166.512 88.76C164.763 88.76 163.12 89.016 161.584 89.528C160.048 90.04 158.704 90.872 157.552 92.024C156.4 93.1333 155.483 94.584 154.8 96.376C154.16 98.1253 153.84 100.259 153.84 102.776C153.84 105.208 154.16 107.32 154.8 109.112C155.44 110.861 156.315 112.312 157.424 113.464C158.576 114.616 159.899 115.491 161.392 116.088C162.928 116.643 164.571 116.92 166.32 116.92ZM182.916 82.68H191.684V116.088H207.94V123H182.916V82.68ZM221.622 82.68V123H212.854V82.68H221.622ZM233.101 82.68H244.173L249.933 101.048C250.189 101.859 250.445 102.733 250.701 103.672C251 104.611 251.277 105.549 251.533 106.488C251.789 107.427 252.024 108.344 252.237 109.24C252.45 110.136 252.621 110.968 252.749 111.736H253.005C253.133 111.053 253.304 110.264 253.517 109.368C253.73 108.429 253.965 107.469 254.221 106.488C254.477 105.507 254.733 104.547 254.989 103.608C255.245 102.669 255.48 101.816 255.693 101.048L261.261 82.68H272.333L275.341 123H267.085C266.829 118.563 266.573 114.125 266.317 109.688C266.061 105.251 265.89 100.771 265.805 96.248L265.741 91H265.549C264.994 93.3467 264.376 95.8 263.693 98.36C263.053 100.92 262.434 103.16 261.837 105.08L256.141 123H249.357L243.533 105.016C242.808 102.712 242.125 100.28 241.485 97.72C240.845 95.16 240.333 92.92 239.949 91H239.757C239.757 92.536 239.736 94.1573 239.693 95.864C239.65 97.528 239.586 99.192 239.501 100.856C239.458 102.52 239.394 104.163 239.309 105.784C239.266 107.363 239.202 108.813 239.117 110.136L238.349 123H230.221L233.101 82.68ZM294.478 107.256H304.718L302.862 101.88C302.264 100.216 301.71 98.552 301.198 96.888C300.686 95.1813 300.195 93.4747 299.726 91.768H299.598C299.128 93.3893 298.616 95.0533 298.062 96.76C297.507 98.424 296.931 100.131 296.333 101.88L294.478 107.256ZM295.246 82.68H304.334L319.246 123H309.966L306.83 113.72H292.494L289.358 123H280.206L295.246 82.68Z" fill="white"/>
<path d="M206.958 76.8917L213.375 70.2917C211.083 69.8333 208.975 68.9167 207.05 67.6333L206.958 76.8917ZM228.042 26.1083L221.625 32.7083C223.917 33.1667 226.025 34.0833 227.95 35.3667L228.042 26.1083ZM198.708 55.625L192.108 62.0417L201.367 61.95C200.083 60.025 199.167 57.9167 198.708 55.625ZM236.292 47.375L242.892 40.9583L233.633 41.05C234.917 42.975 235.833 45.0833 236.292 47.375ZM201.367 41.05L192.108 40.9583L198.708 47.375C199.167 45.0833 200.083 42.975 201.367 41.05ZM233.633 61.95L242.892 62.0417L236.292 55.625C235.833 57.9167 234.917 60.025 233.633 61.95ZM213.375 32.7083L206.958 26.1083L207.05 35.3667C208.975 34.0833 211.083 33.1667 213.375 32.7083ZM221.625 70.2917L228.042 76.8917L227.95 67.6333C226.025 68.9167 223.917 69.8333 221.625 70.2917ZM201.733 62.5L198.067 71.025L206.592 67.3583C204.667 65.9833 203.017 64.3333 201.733 62.5ZM233.267 40.5L236.933 31.975L228.408 35.6417C230.333 37.0167 231.983 38.6667 233.267 40.5ZM198.25 51.5C198.25 50.3083 198.342 49.2083 198.617 48.1083L190 51.5L198.617 54.8917C198.342 53.7917 198.25 52.6917 198.25 51.5ZM245 51.5L236.383 48.1083C236.567 49.2083 236.75 50.4 236.75 51.5C236.75 52.6917 236.658 53.7917 236.383 54.8917L245 51.5ZM206.5 35.7333L197.975 32.0667L201.642 40.5917C203.017 38.6667 204.667 37.0167 206.5 35.7333ZM228.5 67.2667L237.025 70.9333L233.358 62.4083C231.983 64.3333 230.333 65.9833 228.5 67.2667ZM220.892 32.6167L217.5 24L214.108 32.6167C215.208 32.4333 216.4 32.25 217.5 32.25C218.692 32.25 219.792 32.3417 220.892 32.6167ZM214.108 70.3833L217.5 79L220.892 70.3833C219.792 70.6583 218.692 70.75 217.5 70.75C216.308 70.75 215.208 70.6583 214.108 70.3833Z" fill="#FFCA28"/>
<path d="M217.5 34.0833C207.875 34.0833 200.083 41.875 200.083 51.5C200.083 61.125 207.875 68.9167 217.5 68.9167C227.125 68.9167 234.917 61.125 234.917 51.5C234.917 41.875 227.125 34.0833 217.5 34.0833ZM206.867 50.3083C207.967 47.375 209.617 45.8167 211.175 45.8167C212.733 45.8167 214.383 47.2833 215.483 50.3083C215.575 50.5833 215.025 51.1333 214.75 50.8583C213.742 49.7583 212.458 49.3 211.175 49.3C209.892 49.3 208.608 49.7583 207.6 50.8583C207.233 51.225 206.683 50.675 206.867 50.3083ZM225.475 57.1833C224.008 59.5667 221.167 61.5833 217.5 61.5833C213.833 61.5833 210.9 59.475 209.525 57.1833C209.158 56.5417 209.617 55.9 210.258 56.2667C214.933 59.5667 220.158 59.5667 224.833 56.2667C225.383 55.9 225.842 56.6333 225.475 57.1833ZM227.492 50.8583C226.483 49.7583 225.2 49.3 223.917 49.3C222.633 49.3 221.35 49.7583 220.342 50.8583C220.067 51.1333 219.517 50.5833 219.608 50.3083C220.708 47.375 222.358 45.8167 223.917 45.8167C225.567 45.8167 227.125 47.2833 228.225 50.3083C228.317 50.675 227.767 51.225 227.492 50.8583Z" fill="#FFCA28"/>
<path d="M246.416 31.68H261.712C263.973 31.68 265.957 32.0213 267.664 32.704C269.413 33.344 270.864 34.24 272.016 35.392C273.168 36.5013 274.021 37.824 274.576 39.36C275.173 40.8533 275.472 42.4747 275.472 44.224C275.472 45.8453 275.216 47.296 274.704 48.576C274.235 49.8133 273.616 50.9013 272.848 51.84C272.123 52.736 271.291 53.504 270.352 54.144C269.456 54.7413 268.581 55.232 267.728 55.616L277.584 72H267.536L259.792 57.152H255.12V72H246.416V31.68ZM255.12 50.432H258.576C260.88 50.432 262.757 49.9627 264.208 49.024C265.701 48.0853 266.448 46.528 266.448 44.352C266.448 42.432 265.851 40.96 264.656 39.936C263.504 38.8693 261.797 38.336 259.536 38.336H255.12V50.432ZM293.603 56.256H303.843L301.987 50.88C301.389 49.216 300.835 47.552 300.323 45.888C299.811 44.1813 299.32 42.4747 298.851 40.768H298.723C298.253 42.3893 297.741 44.0533 297.187 45.76C296.632 47.424 296.056 49.1307 295.458 50.88L293.603 56.256ZM294.371 31.68H303.459L318.371 72H309.091L305.955 62.72H291.619L288.483 72H279.331L294.371 31.68Z" fill="white"/>
</svg>
